# AST/ASF file generated using VICON BodyLanguage
# -----------------------------------------------
:version 1.10
:name VICON
:units
  mass 1.0
  length 0.45
  angle deg
:documentation
   .ast/.asf automatically generated from VICON data using
   VICON BodyBuilder and BodyLanguage model FoxedUp or BRILLIANT.MOD
:root
   order TX TY TZ RX RY RZ
   axis XYZ
   position 0 0 0  
   orientation 0 0 0 
:bonedata
  begin
     id 1 
     name lhipjoint
     direction 0.603808 -0.713975 0.35448 
     length 2.2025 
     axis 0 0 0  XYZ
  end
  begin
     id 2 
     name lfemur
     direction 0.34202 -0.939693 0  
     length 6.55877  
     axis 0 0 20  XYZ
    dof rx ry rz
    limits (-160.0 20.0)
           (-70.0 70.0)
           (-60.0 70.0)
  end
  begin
     id 3 
     name ltibia
     direction 0.34202 -0.939693 0   
     length 6.80302   
     axis 0 0 20   XYZ
    dof rx
    limits (-10.0 170.0)
  end
  begin
     id 4 
     name lfoot
     direction 0.091848 -0.25235 0.963267   
     length 2.03446   
     axis -90 7.62852e-016 20   XYZ
    dof rx rz
    limits (-45.0 90.0)
           (-70.0 20.0)
  end
  begin
     id 5 
     name ltoes
     direction 1.53608e-011 -4.21925e-011 1   
     length 1.02033   
     axis -90 7.62852e-016 20   XYZ
    dof rx
    limits (-90.0 20.0)
  end
  begin
     id 6 
     name rhipjoint
     direction -0.587285 -0.724947 0.359928   
     length 2.16916  
     axis 0 0 0  XYZ 
  end
  begin
     id 7 
     name rfemur
     direction -0.34202 -0.939693 0   
     length 6.43173   
     axis 0 0 -20   XYZ
    dof rx ry rz
    limits (-160.0 20.0)
           (-70.0 70.0)
           (-70.0 60.0)
  end
  begin
     id 8 
     name rtibia
     direction -0.34202 -0.939693 0   
     length 6.70662   
     axis 0 0 -20   XYZ
    dof rx
    limits (-10.0 170.0)
 end
 begin
     id 9 
     name rfoot
     direction -0.11854 -0.325686 0.938018   
     length 2.0773  
     axis -90 -7.62852e-016 -20   XYZ
    dof rx rz
    limits (-45.0 90.0)
           (-20.0 70.0)
  end
  begin
     id 10 
     name rtoes
     direction -1.53547e-011 -4.21838e-011 1   
     length 1.03267   
     axis -90 -7.62852e-016 -20   XYZ
    dof rx
    limits (-90.0 20.0)
  end
  begin
     id 11 
     name lowerback
     direction -0.0286554 0.999539 0.0100613   
     length 2.08751   
     axis 0 0 0   XYZ
    dof rx ry rz
    limits (-20.0 45.0)
           (-30.0 30.0)
           (-30.0 30.0)
  end
  begin
     id 12 
     name upperback
     direction 0.0227093 0.999705 -0.00860929   
     length 2.08517   
     axis 0 0 0   XYZ
    dof rx ry rz
    limits (-20.0 45.0)
           (-30.0 30.0)
           (-30.0 30.0)
  end
  begin
     id 13 
     name thorax
     direction 0.0351627 0.999285 -0.013892   
     length 2.08412   
     axis 0 0 0   XYZ
    dof rx ry rz
    limits (-20.0 45.0)
           (-30.0 30.0)
           (-30.0 30.0)
  end
  begin
     id 14 
     name lowerneck
     direction -0.0696283 0.997344 0.0213922   
     length 1.44164   
     axis 0 0 0   XYZ
    dof rx ry rz
    limits (-20.0 45.0)
           (-30.0 30.0)
           (-30.0 30.0)
  end
  begin
     id 15 
     name upperneck
     direction 0.0531 0.990412 -0.127531   
     length 1.45022   
     axis 0 0 0   XYZ
    dof rx ry rz
    limits (-20.0 45.0)
           (-30.0 30.0)
           (-30.0 30.0)
  end
  begin
     id 16
     name head
     direction 0.0188154 0.998548 -0.0504727  
     length 1.45845  
     axis 0 0 0   XYZ
    dof rx ry rz
    limits (-20.0 45.0)
           (-30.0 30.0)
           (-30.0 30.0)
  end
  begin
     id 17 
     name lclavicle
     direction 0.961559 0.260051 0.088188  
     length 2.86057  
     axis 0 0 0   XYZ
    dof ry rz
    limits (-20.0 10.0)
           (0.0 20.0)
  end
  begin
     id 18 
     name lhumerus
     direction 1 -4.48959e-011 2.88185e-027   
     length 4.36901   
     axis 180 -30 -90   XYZ
    dof rx ry rz
    limits (-60.0 90.0)
           (-90.0 90.0)
           (-90.0 90.0)
  end
  begin
     id 19
     name lradius
     direction 1 -4.48965e-011 -3.92618e-028   
     length 3.21737   
     axis 180 -30 -90   XYZ
    dof rx
    limits (-10.0 170.0)
  end
  begin
     id 20
     name lwrist
     direction 1 -4.49037e-011 2.57246e-027   
     length 1.60869   
     axis -1.61769e-015 90 90   XYZ
    dof ry
    limits (-180.0 0.0)
 end
  begin
     id 21 
     name lhand
     direction 1 -4.48807e-011 5.12958e-027   
     length 0.564313   
     axis -3.27988e-015 90 90   XYZ
    dof rx rz
    limits (-90.0 90.0)
           (-45.0 45.0)
  end
  begin
     id 22 
     name lfingers
     direction 1 -4.48879e-011 1.02687e-026   
     length 0.454963   
     axis -6.5598e-015 90 90   XYZ
    dof rx
    limits (0.0 90.0)
  end
  begin
     id 23
     name lthumb
     direction 0.707107 -6.3475e-011 0.707107   
     length 0.653239   
     axis -90 45 2.19363e-014   XYZ
    dof rx rz
    limits (-45.0 45.0)
           (-45.0 45.0)
  end
  begin
     id 24 
     name rclavicle
     direction -0.954677 0.253915 0.155304   
     length 3.11497  
     axis 0 0 0   XYZ 
    dof ry rz
    limits (-10.0 20.0)
           (-20.0 0.0)
  end
  begin
     id 25 
     name rhumerus
     direction -1 -4.48958e-011 -8.20169e-028  
     length 4.34118   
     axis 180 30 90   XYZ
    dof rx ry rz
    limits (-90.0 60.0)
           (-90.0 90.0)
           (-90.0 90.0)
  end
  begin
     id 26 
     name rradius
     direction -1 -4.48978e-011 1.5676e-027   
     length 3.09531   
     axis 180 30 90   XYZ
    dof rx
    limits (-10.0 170.0)
  end
  begin
     id 27 
     name rwrist
     direction -1 -4.49001e-011 2.57123e-027   
     length 1.54765   
     axis -1.61769e-015 -90 -90   XYZ
    dof ry
    limits (-180.0 0.0)
  end
  begin
     id 28
     name rhand
     direction -1 -4.48847e-011 5.13225e-027   
     length 0.597446   
     axis -3.27988e-015 -90 -90   XYZ
    dof rx rz
    limits (-90.0 90.0)
           (-45.0 45.0)
  end
  begin
     id 29
     name rfingers
     direction -1 -4.49094e-011 1.02974e-026   
     length 0.481677   
     axis -6.5598e-015 -90 -90   XYZ
    dof rx
    limits (0.0 90.0)
  end
  begin
     id 30
     name rthumb
     direction -0.707107 -6.34859e-011 0.707107   
     length 0.691594   
     axis -90 -45 -2.19363e-014   XYZ
    dof rx rz
    limits (-45.0 45.0)
           (-45.0 45.0)
  end
:hierarchy
  begin
    root lhipjoint rhipjoint lowerback
    lhipjoint lfemur
    lfemur ltibia
    ltibia lfoot
    lfoot ltoes
    rhipjoint rfemur
    rfemur rtibia
    rtibia rfoot
    rfoot rtoes
    lowerback upperback
    upperback thorax
    thorax lowerneck lclavicle rclavicle
    lowerneck upperneck
    upperneck head
    lclavicle lhumerus
    lhumerus lradius
    lradius lwrist
    lwrist lhand lthumb
    lhand lfingers
    rclavicle rhumerus
    rhumerus rradius
    rradius rwrist
    rwrist rhand rthumb
    rhand rfingers
  end

#!OML:ASF I:\Acrobat_Osman\acrobat\cartwheel_test 2\Patient 1\Session 1\acrobat.ASF
:FULLY-SPECIFIED
:DEGREES
39
root 10.2674 15.6313 7.94663 180.492 -76.8954 -173.12
lowerback -3.24752 1.94825 -6.67483
upperback 2.73536 2.89114 1.26089
thorax 4.27776 1.20092 5.25088
lowerneck -11.842 3.4244 -0.164668
upperneck 2.90697 4.95316 -7.18114
head 3.25864 2.10777 -2.03065
rclavicle 2.79541e-014 -4.77083e-015
rhumerus -43.0295 -3.43853 -77.2374
rradius 44.1564
rwrist -4.39955
rhand -12.2679 21.3008
rfingers 7.12502
rthumb 13.7988 -8.22154
lclavicle 2.79541e-014 -4.77083e-015
lhumerus -35.6182 -13.1629 89.7222
lradius 41.8133
lwrist 21.2631
lhand -13.3553 46.8158
lfingers 7.12502
lthumb 12.7507 76.4065
rfemur -26.5045 -12.447 16.1984
rtibia 63.848
rfoot 8.0485 -9.74217
rtoes -24.8189
lfemur -23.5906 -8.24182 -21.1585
ltibia 41.779
lfoot -21.0787 18.883
ltoes -32.585
40
root 10.2692 15.6298 7.94689 180.64 -76.7183 -173.325
lowerback -3.20166 1.88616 -6.66337
upperback 2.80551 2.80342 1.30321
thorax 4.33599 1.15214 5.28405
lowerneck -11.7687 3.51403 -0.0495264
upperneck 3.01906 5.07414 -7.35485
head 3.2998 2.16018 -2.10342
rclavicle 1.3741e-014 1.98785e-016
rhumerus -43.0826 -3.42042 -77.0878
rradius 44.2708
rwrist -4.60972
rhand -12.7044 21.2765
rfingers 7.12502
rthumb 13.3782 -8.27394
lclavicle 1.3741e-014 1.98785e-016
lhumerus -35.8414 -13.6911 90.1608
lradius 42.1397
lwrist 21.2504
lhand -13.9256 46.8975
lfingers 7.12502
lthumb 12.2009 76.5216
rfemur -26.4678 -12.4252 16.1274
rtibia 63.8521
rfoot 8.0465 -9.56898
rtoes -24.5486
lfemur -23.5179 -8.12122 -21.2028
ltibia 41.7946
lfoot -21.2198 18.8718
ltoes -32.3905
41
root 10.2707 15.6271 7.94754 180.593 -76.5231 -173.294
lowerback -3.20669 1.82224 -6.63785
upperback 2.8812 2.71494 1.37804
thorax 4.42832 1.10136 5.34588
lowerneck -11.7264 3.59369 0.0657177
upperneck 2.96035 5.16695 -7.49837
head 3.28533 2.20343 -2.16702
rclavicle -4.39066e-014 1.88845e-015
rhumerus -43.0635 -3.05945 -77.0593
rradius 44.268
rwrist -4.80096
rhand -13.2676 21.3745
rfingers 7.12502
rthumb 12.8352 -8.2109
lclavicle -4.39066e-014 1.88845e-015
lhumerus -35.9504 -14.0381 90.5224
lradius 42.2541
lwrist 21.059
lhand -13.8664 46.8917
lfingers 7.12502
lthumb 12.258 76.5125
rfemur -26.459 -12.4006 16.1255
rtibia 63.8441
rfoot 7.97043 -9.39683
rtoes -24.2319
lfemur -23.4857 -8.05149 -21.1881
ltibia 41.7962
lfoot -21.2418 19.0148
ltoes -32.2793
42
root 10.2705 15.6266 7.95065 180.458 -76.2415 -173.101
lowerback -3.29396 1.77173 -6.50715
upperback 2.96089 2.64564 1.42241
thorax 4.57434 1.06187 5.32096
lowerneck -11.776 3.63154 0.17226
upperneck 2.69774 5.18376 -7.53182
head 3.20945 2.21686 -2.19507
rclavicle -7.25564e-015 -2.18663e-014
rhumerus -42.9658 -2.70085 -77.0644
rradius 44.1366
rwrist -4.75887
rhand -13.2938 21.6896
rfingers 7.12502
rthumb 12.81 -7.89735
lclavicle -7.25564e-015 -2.18663e-014
lhumerus -35.9432 -14.2671 90.7928
lradius 42.1577
lwrist 21.0835
lhand -13.9168 46.702
lfingers 7.12502
lthumb 12.2093 76.3256
rfemur -26.5425 -12.2766 16.1697
rtibia 63.8188
rfoot 7.87214 -9.29493
rtoes -23.9869
lfemur -23.5376 -7.96233 -21.1382
ltibia 41.8067
lfoot -21.0901 19.2915
ltoes -32.6489
43
root 10.2716 15.6251 7.95532 180.48 -75.9311 -172.971
lowerback -3.44072 1.66332 -6.43154
upperback 3.06693 2.50276 1.53822
thorax 4.78739 0.979221 5.401
lowerneck -12.1426 3.66264 0.2412
upperneck 2.33776 5.19478 -7.65973
head 3.16289 2.2154 -2.24578
rclavicle 9.01985e-015 -6.16232e-015
rhumerus -42.7247 -2.3757 -76.8756
rradius 43.9607
rwrist -4.26299
rhand -12.7597 22.1915
rfingers 7.12502
rthumb 13.3248 -7.36245
lclavicle 9.01985e-015 -6.16232e-015
lhumerus -35.7674 -14.0082 91.1052
lradius 41.8965
lwrist 21.1071
lhand -14.3076 46.5911
lfingers 7.12502
lthumb 11.8325 76.2368
rfemur -26.759 -12.1712 16.2176
rtibia 63.8149
rfoot 7.84383 -9.15533
rtoes -24.2156
lfemur -23.6728 -7.84533 -21.0846
ltibia 41.7935
lfoot -20.8915 19.5459
ltoes -33.0409
44
root 10.2768 15.6292 7.95653 180.767 -75.652 -173.102
lowerback -3.48233 1.54486 -6.50324
upperback 3.15235 2.34453 1.69979
thorax 4.91513 0.886678 5.6063
lowerneck -12.5385 3.66001 0.190705
upperneck 1.77647 5.1574 -7.80666
head 3.04614 2.18968 -2.28374
rclavicle -7.85199e-015 -2.48978e-014
rhumerus -42.5161 -1.87448 -76.667
rradius 43.9508
rwrist -3.93289
rhand -12.31 22.4343
rfingers 7.12502
rthumb 13.7582 -7.09084
lclavicle -7.85199e-015 -2.48978e-014
lhumerus -35.6798 -13.5494 91.4712
lradius 41.7269
lwrist 21.0597
lhand -14.517 46.6495
lfingers 7.12502
lthumb 11.6306 76.3067
rfemur -26.9488 -12.0459 16.2338
rtibia 63.7872
rfoot 7.80968 -9.07288
rtoes -24.5048
lfemur -23.8544 -7.50329 -21.1115
ltibia 41.774
lfoot -20.6536 19.6311
ltoes -33.3505
45
root 10.2826 15.6313 7.95797 181.379 -75.4361 -173.688
lowerback -3.30292 1.49169 -6.62384
upperback 3.1421 2.2658 1.73399
thorax 4.8085 0.847012 5.69835
lowerneck -12.6638 3.53552 0.196487
upperneck 1.16919 4.93224 -7.75266
head 2.84798 2.0893 -2.27867
rclavicle 2.10091e-014 -6.80837e-015
rhumerus -42.612 -1.41649 -76.6264
rradius 44.0493
rwrist -3.87987
rhand -12.0906 22.3551
rfingers 7.12502
rthumb 13.9697 -7.15558
lclavicle 2.10091e-014 -6.80837e-015
lhumerus -35.9638 -13.4018 91.7524
lradius 41.6954
lwrist 21.0117
lhand -14.4746 46.6645
lfingers 7.12502
lthumb 11.6715 76.3194
rfemur -26.995 -11.8864 16.0699
rtibia 63.7466
rfoot 7.5867 -9.17163
rtoes -23.6392
lfemur -23.8858 -7.37904 -21.2663
ltibia 41.7274
lfoot -20.6122 19.6555
ltoes -33.048
46
root 10.2858 15.6306 7.96117 182.016 -75.3268 -174.351
lowerback -3.09476 1.43174 -6.70682
upperback 3.10974 2.17687 1.68746
thorax 4.66799 0.807436 5.6819
lowerneck -12.7837 3.36351 0.400901
upperneck 0.685707 4.6255 -7.65343
head 2.69407 1.94961 -2.30034
rclavicle 3.51352e-014 1.49089e-015
rhumerus -42.7716 -1.12246 -76.7303
rradius 44.0521
rwrist -3.90351
rhand -12.1378 22.1473
rfingers 7.12502
rthumb 13.9242 -7.3665
lclavicle 3.51352e-014 1.49089e-015
lhumerus -36.4091 -13.3278 91.97
lradius 41.6481
lwrist 20.876
lhand -14.3542 46.5845
lfingers 7.12502
lthumb 11.7876 76.2328
rfemur -26.9911 -11.9846 15.8283
rtibia 63.6854
rfoot 7.40276 -9.08588
rtoes -22.4728
lfemur -23.8366 -7.58319 -21.4298
ltibia 41.6787
lfoot -20.7692 19.6656
ltoes -32.2013
47
root 10.2877 15.6303 7.96351 182.088 -75.2827 -174.384
lowerback -3.00072 1.33477 -6.66104
upperback 3.10235 2.03687 1.70576
thorax 4.62772 0.740759 5.66334
lowerneck -12.9172 3.23978 0.628135
upperneck 0.200409 4.38026 -7.56612
head 2.54629 1.83804 -2.32581
rclavicle 1.45113e-014 -1.76421e-014
rhumerus -42.7534 -0.908478 -76.8462
rradius 43.8874
rwrist -3.89888
rhand -12.3819 21.898
rfingers 7.12502
rthumb 13.6889 -7.63178
lclavicle 1.45113e-014 -1.76421e-014
lhumerus -36.8389 -13.1609 92.2113
lradius 41.5836
lwrist 20.8427
lhand -14.2695 46.4962
lfingers 7.12502
lthumb 11.8693 76.1398
rfemur -27.0052 -12.125 15.7963
rtibia 63.6069
rfoot 7.38433 -8.82793
rtoes -22.2989
lfemur -23.8376 -7.73149 -21.4232
ltibia 41.6223
lfoot -20.7853 19.7837
ltoes -32.0114
48
root 10.2885 15.6321 7.96453 181.991 -75.2191 -174.22
lowerback -2.94253 1.26767 -6.57298
upperback 3.05236 1.93798 1.70426
thorax 4.55849 0.69911 5.60276
lowerneck -12.8577 3.16258 1.00792
upperneck -0.23812 4.18237 -7.50349
head 2.38704 1.75337 -2.38547
rclavicle -3.30107e-014 8.59744e-015
rhumerus -42.6448 -0.872556 -76.9564
rradius 43.5268
rwrist -3.73683
rhand -12.5441 21.715
rfingers 7.12502
rthumb 13.5327 -7.82522
lclavicle -3.30107e-014 8.59744e-015
lhumerus -37.3665 -13.2925 92.4791
lradius 41.54
lwrist 21.1169
lhand -14.509 46.5582
lfingers 7.12502
lthumb 11.6383 76.2149
rfemur -26.996 -12.024 15.8399
rtibia 63.5125
rfoot 7.36025 -8.65424
rtoes -22.6875
lfemur -23.8793 -7.68046 -21.384
ltibia 41.5675
lfoot -20.6102 19.9933
ltoes -32.5687
49
root 10.2888 15.6345 7.96351 182.371 -75.1428 -174.553
lowerback -2.89364 1.18781 -6.63768
upperback 3.00812 1.83225 1.66888
thorax 4.49906 0.648887 5.59343
lowerneck -12.7693 3.13112 1.41487
upperneck -0.572534 4.05377 -7.4612
head 2.2628 1.70028 -2.453
rclavicle 1.9543e-014 -2.17669e-014
rhumerus -42.389 -0.997751 -77.0256
rradius 43.0776
rwrist -3.40697
rhand -12.3171 21.7501
rfingers 7.12502
rthumb 13.7514 -7.77552
lclavicle 1.9543e-014 -2.17669e-014
lhumerus -37.9024 -13.4758 92.7405
lradius 41.4886
lwrist 21.3508
lhand -14.9535 46.7722
lfingers 7.12502
lthumb 11.2096 76.4527
rfemur -26.982 -11.9196 15.7338
rtibia 63.4205
rfoot 7.28049 -8.49785
rtoes -22.9681
lfemur -23.9338 -7.51171 -21.4932
ltibia 41.5171
lfoot -20.42 20.0406
ltoes -32.983
50
root 10.2878 15.6384 7.95668 182.77 -75.1225 -174.955
lowerback -2.85649 1.02382 -6.88264
upperback 3.06178 1.6185 1.77573
thorax 4.5587 0.527655 5.83331
lowerneck -12.9243 3.14857 1.41827
upperneck -0.740416 4.05486 -7.29831
head 2.22867 1.70429 -2.39691
rclavicle 2.9886e-014 6.43565e-015
rhumerus -41.9773 -0.988159 -76.9271
rradius 42.7661
rwrist -2.91407
rhand -12.0237 21.8265
rfingers 7.12502
rthumb 14.0341 -7.67968
lclavicle 2.9886e-014 6.43565e-015
lhumerus -38.2745 -13.2595 93.0638
lradius 41.4205
lwrist 21.2985
lhand -14.7888 46.999
lfingers 7.12502
lthumb 11.3685 76.6709
rfemur -26.8862 -11.9421 15.616
rtibia 63.3372
rfoot 7.1332 -8.37584
rtoes -23.2252
lfemur -23.8911 -7.38283 -21.5874
ltibia 41.4503
lfoot -20.4584 19.808
ltoes -32.6593
51
root 10.2848 15.6428 7.94273 182.929 -75.1541 -175.209
lowerback -2.79262 0.867444 -7.22361
upperback 3.16544 1.41457 1.95515
thorax 4.65446 0.402508 6.20627
lowerneck -13.1293 3.20431 1.36273
upperneck -0.715085 4.13369 -7.20439
head 2.27319 1.74063 -2.34899
rclavicle -4.46804e-015 4.24106e-015
rhumerus -41.5845 -0.886551 -76.7716
rradius 42.6211
rwrist -2.42046
rhand -12.2081 21.6933
rfingers 7.12502
rthumb 13.8565 -7.8251
lclavicle -4.46804e-015 4.24106e-015
lhumerus -38.6344 -13.2157 93.5059
lradius 41.4711
lwrist 21.1844
lhand -14.2203 47.3803
lfingers 7.12502
lthumb 11.9167 77.0212
rfemur -26.6413 -11.9965 15.5481
rtibia 63.2613
rfoot 6.99521 -8.25743
rtoes -23.7916
lfemur -23.6965 -7.26832 -21.6147
ltibia 41.365
lfoot -20.5253 19.5649
ltoes -32.4392
52
root 10.2837 15.6407 7.93202 183.367 -75.1517 -175.82
lowerback -2.64451 0.791226 -7.55903
upperback 3.26866 1.31501 2.02838
thorax 4.6901 0.333449 6.46798
lowerneck -13.1978 3.27581 1.49391
upperneck -0.596504 4.22063 -7.20915
head 2.33432 1.78142 -2.36904
rclavicle 4.41053e-016 -2.1916e-014
rhumerus -41.2474 -0.883138 -76.7643
rradius 42.6096
rwrist -2.304
rhand -12.7483 21.6437
rfingers 7.12502
rthumb 13.3358 -7.9096
lclavicle 4.41053e-016 -2.1916e-014
lhumerus -39.1701 -13.804 94.0673
lradius 41.8833
lwrist 21.2934
lhand -14.4367 48.1621
lfingers 7.12502
lthumb 11.708 77.8149
rfemur -26.3777 -12.003 15.3507
rtibia 63.2231
rfoot 6.90777 -8.14544
rtoes -24.193
lfemur -23.4609 -7.1814 -21.7821
ltibia 41.2905
lfoot -20.3455 19.6707
ltoes -33.1685
